# xmcd
#
# Track frame offsets:
#	150
#	22483
#	46297
#	69376
#
# Disc length: 1128 seconds
#
# Revision: 1
# Processed by: cddbd v1.5.1PL2 Copyright (c) Steve Scherf et al.
# Submitted via: audiograbber 1.83.01
#
DISCID=34046604
DTITLE=Vicarious Bliss - Theme From Vicarious Bliss
DYEAR=2005
DGENRE=
TTITLE0=Theme From Vicarious Bliss (Justice Remix)
TTITLE1=Theme From Vicarious Bliss (Dave Clarke Remix)
TTITLE2=Theme From Vicarious Bliss (Lifelike Goes To Disco Remix)
TTITLE3=Theme From Vicarious Bliss (Original)
EXTD=
EXTT0=
EXTT1=
EXTT2=
EXTT3=
PLAYORDER=
